<svg id="Spark_landing_Image" data-name="Spark landing Image" xmlns="http://www.w3.org/2000/svg" width="427.78" height="420.13" viewBox="0 0 427.78 420.13"><defs><style>.cls-1,.cls-3{opacity:.4}.cls-2,.cls-3,.cls-4{fill:#e8ebed}.cls-4,.cls-5{opacity:.8}.cls-6{fill:#82919b}.cls-7{fill:#ff4931}.cls-8{fill:#dce0e3}</style></defs><title>create-in-minutes</title><g class="cls-1"><path class="cls-2" d="M2634.41 5400.19v62.73h68v-62.73h-68zm62.73 54.89l-17.86-17.86-6.53 6.53-17.43-17.43-15.68 15.68v-36.59h57.5v49.66z" transform="translate(-2542.41 -5380.78)"/><circle class="cls-2" cx="139.05" cy="40.32" r="7.84"/></g><g class="cls-1"><path class="cls-2" d="M2863 5512.71v80.55h87.26v-80.55H2863zm80.55 70.48l-22.93-22.93-8.39 8.39-22.37-22.37-20.14 20.14v-47h73.84v63.77z" transform="translate(-2542.41 -5380.78)"/><circle class="cls-2" cx="381.05" cy="158.77" r="10.07"/></g><g class="cls-1"><path class="cls-2" d="M2557.76 5647.92v57.93h58.6v-57.93h-58.6zm54.09 50.68l-15.4-16.49-5.63 6-15-16.09-13.52 14.48v-33.79h49.58v45.86z" transform="translate(-2542.41 -5380.78)"/><ellipse class="cls-2" cx="55.92" cy="286.44" rx="6.76" ry="7.24"/></g><circle class="cls-3" cx="25.57" cy="131.74" r="15.92"/><circle class="cls-3" cx="183.01" cy="31.37" r="10.86"/><circle class="cls-3" cx="409.5" cy="217.18" r="17.98"/><circle class="cls-4" cx="120.59" cy="368.28" r="17.98"/><path class="cls-4" d="M293.8 43.43V0l-43.43 43.43h43.43z"/><path class="cls-3" d="M0 255.42h43.43L0 211.99v43.43z"/><path class="cls-4" d="M144.57 170.8h43.44l-43.44-43.43v43.43zM403.65 287.64h24.13v24.13h-24.13z"/><path class="cls-3" d="M284.99 34.62h17.62v17.62h-17.62zM342.6 52.72h17.62v17.62H342.6z"/><g class="cls-1"><path class="cls-2" d="M2805.32 5446v4.83h38.6V5446h-38.6zm0 9.65v4.83h29v-4.83h-29zm0 9.65v4.83h38.6v-4.83h-38.6zm0 9.65v4.83h29V5475h-29z" transform="translate(-2542.41 -5380.78)"/></g><g class="cls-5"><path class="cls-2" d="M2889.24 5668.7v5.9h47.16v-5.9h-47.16zm0 11.79v5.9h35.37v-5.9h-35.37zm0 11.79v5.9h47.16v-5.9h-47.16zm0 11.79v5.9h35.37v-5.9h-35.37z" transform="translate(-2542.41 -5380.78)"/></g><g class="cls-5"><path class="cls-2" d="M2613.5 5506.73v7.48h59.81v-7.48h-59.81zm0 15v7.48h44.86v-7.48h-44.86zm0 15v7.48h59.81v-7.48h-59.81zm0 15v7.48h44.86v-7.48h-44.86z" transform="translate(-2542.41 -5380.78)"/></g><path class="cls-3" d="M276.42 412.65h43.44l-43.44-43.43v43.43z"/><g class="cls-1"><path class="cls-2" d="M2745.35 5748.58v7.48h59.81v-7.48h-59.81zm0 15v7.42h44.86v-7.48h-44.86zm0 15v7.42h59.81v-7.48h-59.81zm0 15v7.48h44.86v-7.48h-44.86z" transform="translate(-2542.41 -5380.78)"/></g><path class="cls-6" transform="rotate(90 4182.285 1542.605)" d="M2720.03 5487.83h86.13v32.75h-86.13z"/><path class="cls-7" d="M173.51 76.73h94.36v23.59h-94.36z"/><path class="cls-8" d="M2763.27 5609.17v-116.38a116.84 116.84 0 1 0 85.11 36.81z" transform="translate(-2542.41 -5380.78)"/><path class="cls-7" d="M2848.38 5529.6a116.49 116.49 0 0 0-85.11-36.81v116.38z" transform="translate(-2542.41 -5380.78)"/><path class="cls-6" d="M2847.91 5529.6s-93.23 71.77-98.08 76.63a12.49 12.49 0 0 0 0 17.62c4.85 5.11 12.52 5.11 17.62 0s80.71-94.25 80.71-94.25h-.26z" transform="translate(-2542.41 -5380.78)"/></svg>