<svg id="Alternates" xmlns="http://www.w3.org/2000/svg" width="70.1" height="80" viewBox="0 0 70.1 80"><defs><style>.cls-1{fill:#fcce00}</style></defs><title>create-in-minutes-mobile</title><path class="cls-1" d="M7616.42 5790.2v10h10v.3a35 35 0 1 0 40 34.7 34 34 0 0 0-2.5-12.5l-9.1 3.8a24.06 24.06 0 0 1 1.6 8.8 25 25 0 1 1-25-25 24.44 24.44 0 0 1 8.8 1.6l3.4-9.4a41.87 41.87 0 0 0-7.2-1.6v-.6h10v-10h-30v-.1zm50 11.6s-36.5 28.1-38.4 30a4.89 4.89 0 0 0 0 6.9 4.72 4.72 0 0 0 6.9 0c2-2 31.6-36.9 31.6-36.9h-.1z" transform="translate(-7596.42 -5790.2)"/></svg>