<svg id="Spark_landing_Image" data-name="Spark landing Image" xmlns="http://www.w3.org/2000/svg" width="433.18" height="420.12" viewBox="0 0 433.18 420.12"><defs><style>.cls-1,.cls-2,.cls-3{fill:#e8ebed}.cls-1{opacity:.4}.cls-2{opacity:.8}.cls-4{fill:#82919b}.cls-5{fill:#fff}.cls-6{fill:#00b1ef}</style></defs><title>get-inspired</title><path class="cls-1" d="M4109.14 5638.76h-1.61a.63.63 0 0 0-.44-.22l-12.83-15.1 11.22-14h3.67v7.33l14.66-11-14.66-11v7.33h-3.67a6.38 6.38 0 0 0-5.72 2.79l-10.34 13.05-11.22-13.05a6.82 6.82 0 0 0-5.72-2.79h-7.33v7.33h7.33c-.37 0 .07.29.22.22l12 14-12.17 15.1h-7.33v7.33h7.33a6.38 6.38 0 0 0 5.72-2.79l11.22-14 12.17 14a6.82 6.82 0 0 0 5.72 2.79h1.83v7.33l14.66-11-14.66-11v7.33z" transform="translate(-3690.63 -5371.76)"/><path class="cls-2" d="M4062.65 5412.06h1.21a.47.47 0 0 0 .33.16l9.59 11.29-8.39 10.47h-2.74v-5.48l-11 8.22 11 8.22v-5.48h2.74a4.77 4.77 0 0 0 4.28-2.08l7.73-9.76 8.39 9.76a5.1 5.1 0 0 0 4.28 2.08h5.48V5434h-5.48c.27 0-.05-.22-.16-.16l-8.94-10.47 9.1-11.29h5.48v-5.48h-5.48a4.77 4.77 0 0 0-4.28 2.08l-8.39 10.47-9.1-10.47a5.1 5.1 0 0 0-4.28-2.08h-1.37v-5.48l-11 8.22 11 8.22v-5.48z" transform="translate(-3690.63 -5371.76)"/><path class="cls-1" d="M3749.18 5679.09h-1.57a.62.62 0 0 0-.43-.21l-12.48-14.69 10.91-13.62h3.56v7.13l14.26-10.69-14.26-10.69v7.13h-3.56a6.21 6.21 0 0 0-5.56 2.71l-10.05 12.68-10.91-12.69a6.63 6.63 0 0 0-5.56-2.71h-7.13v7.13h7.13c-.36 0 .07.29.21.21l11.62 13.62-11.83 14.69h-7.13v7.13h7.13a6.21 6.21 0 0 0 5.56-2.71l10.91-13.62 11.83 13.62a6.63 6.63 0 0 0 5.56 2.71h1.78v7.13l14.26-10.69-14.25-10.66v7.13zM3888.7 5415.75h-1.61a.63.63 0 0 0-.44-.22l-12.83-15.1 11.22-14h3.67v7.33l14.66-11-14.66-11v7.33H3885a6.38 6.38 0 0 0-5.72 2.79l-10.28 13.05-11.22-13.05a6.82 6.82 0 0 0-5.72-2.79h-7.33v7.33h7.27c-.37 0 .07.29.22.22l12 14-12.17 15.1h-7.33v7.33h7.28a6.38 6.38 0 0 0 5.72-2.79l11.22-14 12.17 14a6.82 6.82 0 0 0 5.72 2.79h1.83v7.33l14.66-11-14.66-11v7.33z" transform="translate(-3690.63 -5371.76)"/><path class="cls-2" d="M3888.55 5777.22h1.61a.63.63 0 0 1 .44-.22l12.83-15.1-11.22-14h-3.67v7.33l-14.66-11 14.66-11v7.33h3.67a6.38 6.38 0 0 1 5.72 2.79l10.34 13.05 11.22-13.05a6.82 6.82 0 0 1 5.72-2.79h7.33v7.33h-7.33c.37 0-.07.29-.22.22l-12 14 12.17 15.1h7.33v7.33h-7.33a6.38 6.38 0 0 1-5.72-2.79l-11.22-14-12.17 14a6.82 6.82 0 0 1-5.72 2.79h-1.83v7.33l-14.66-11 14.66-11v7.33zM3700.71 5554.17h1.11a.44.44 0 0 1 .3-.15l8.82-10.38-7.71-9.63h-2.52v5l-10.08-7.56 10.08-7.56v5h2.52a4.39 4.39 0 0 1 3.93 1.92l7.11 9 7.71-9a4.69 4.69 0 0 1 3.93-1.92h5v5h-5c.25 0-.05.2-.15.15l-8.22 9.63 8.37 10.38h5v5h-5a4.39 4.39 0 0 1-3.93-1.92l-7.71-9.63-8.37 9.63a4.69 4.69 0 0 1-3.93 1.92h-1.26v5l-10.08-7.56 10.08-7.56v5z" transform="translate(-3690.63 -5371.76)"/><path class="cls-3" d="M80.98 83.14h225v275h-225zM318.48 91.26h60.75v225h-60.75z"/><path class="cls-4" d="M4038.79 5514.92a7.62 7.62 0 1 1 7.62-7.62 7.62 7.62 0 0 1-7.62 7.62zm3.46-22.15v4.76a10.39 10.39 0 0 1 6.92 9.78v.69h8.34v-15.23h-15.23zm-3.46 4.15h.69v-7h6.92v-11.08l-24.92 24.92h7.52a10.39 10.39 0 0 1 9.79-6.84z" transform="translate(-3690.63 -5371.76)"/><path class="cls-5" d="M4025.08 5533.63a1.38 1.38 0 0 0-1.34 1.34v28.82a1.38 1.38 0 0 0 1.34 1.34h28.82a1.38 1.38 0 0 0 1.34-1.34V5535a1.38 1.38 0 0 0-1.34-1.34h-28.82zm2.6 3.94h23.63v23.63h-23.62v-23.62zM4041.78 5617.6v-1.66c2.79-.42 3-1 2.27-3.08-.47-1.42-1.18-3.41-1.89-5.35h-9.09c-.52 1.47-1.14 3.17-1.7 5.07-.66 2.28-.57 2.94 2.89 3.36v1.66h-10.61v-1.66c3.13-.38 3.69-.9 5.26-4.88l9.71-24.35 2.42-.62c3 8.29 6 16.53 9 24.68 1.61 4.17 2.23 4.79 5.21 5.16v1.66h-13.55zm-4-22.83h-.14c-1.33 3.46-2.51 6.87-3.74 10.23h7.39z" transform="translate(-3690.63 -5371.76)"/><path class="cls-6" d="M3836.31 5557.07v-3.55c6-.91 6.5-2.13 4.87-6.6-1-3-2.54-7.31-4.06-11.47h-19.49c-1.12 3.15-2.44 6.8-3.65 10.86-1.42 4.88-1.21 6.3 6.19 7.21v3.55h-22.74l.1-3.55c6.7-.81 7.92-1.93 11.27-10.46l20.8-52.17 5.18-1.32c6.5 17.76 12.79 35.42 19.38 52.88 3.45 8.93 4.78 10.26 11.17 11.07v3.55h-29zm-8.63-48.93h-.31c-2.84 7.41-5.38 14.72-8 21.93h15.84z" transform="translate(-3690.63 -5371.76)"/><path class="cls-5" d="M4039.49 5636.31l-4.5 13.5h-13.5l11.25 9-4.5 13.5 11.25-9 11.25 9-4.5-13.5 11.25-9H4044z" transform="translate(-3690.63 -5371.76)"/><path class="cls-6" d="M3885.06 5489.57v9.64h77.14v-9.64h-77.14zm0 19.29v9.64h57.86v-9.64h-57.86zm0 19.29v9.64h77.14v-9.64h-77.14zm0 19.29v9.64h57.86v-9.64h-57.86z" transform="translate(-3690.63 -5371.76)"/><circle class="cls-6" cx="229.54" cy="246.41" r="12.07"/><path class="cls-6" d="M3813.75 5583.78v105H3955v-105h-141.25zm95.36 59.54L3894 5658.4l-40.23-40.23L3824 5648v-54h120.3v84.48z" transform="translate(-3690.63 -5371.76)"/></svg>