<svg xmlns="http://www.w3.org/2000/svg" width="580" height="400" viewBox="0 0 580 400"><path fill="#35414C" d="M519.1 1.9H62.3c-7 0-12.7 5.7-12.7 12.7v308.8c0 7 5.7 12.7 12.7 12.7h456.8c7 0 12.7-5.7 12.7-12.7V14.7c.1-7.1-5.6-12.8-12.7-12.8z"/><path fill="#DCE0E3" d="M571.4 387.6c.9 1.3-8.2 2.2-16.4 2.2H26.4c-8.1 0-17.1-1.1-16.2-2.4l37.7-48.8c.9-1.3 7.4-2.4 14.4-2.4h456.8c7 0 13.5 1.1 14.4 2.4l37.9 49z"/><path fill="#9AA6AF" d="M572.3 393.5c0 3.1-5.8 5.7-12.9 5.7H22c-7.1 0-12.9-2.5-12.9-5.7v-3.9c0-3.1 5.8-5.7 12.9-5.7h537.3c7.1 0 12.9 2.5 12.9 5.7v3.9zM63.5 342.6l-4.5 6h465.4l-4.6-6zM57.4 352.2l-4.3 6h478.4l-4.7-6zM52.3 361.3l-4.2 6h489.4l-3.8-6z"/><g fill="#9AA6AF"><path d="M296.4 380.1h74.4l-3-10h-71.4zM287.6 370.1h-72l-2.4 10h74.4z"/></g></svg>