<svg id="Spark_landing_Image" data-name="Spark landing Image" xmlns="http://www.w3.org/2000/svg" width="360.71" height="407.45" viewBox="0 0 360.71 407.45"><defs><style>.cls-1,.cls-4,.cls-5{fill:#e8ebed}.cls-2,.cls-5{opacity:.8}.cls-3,.cls-4{opacity:.4}.cls-6{fill:#10c459}.cls-7{fill:#82919b}.cls-8{fill:#f2f4f5}</style></defs><title>share-instantly</title><path class="cls-1" d="M0 263.8h90v90H0z"/><g class="cls-2"><path class="cls-1" d="M3206.51 5516.43a13.3 13.3 0 0 0-9.31 3.9 13.07 13.07 0 0 0-3.9 9.31 13.3 13.3 0 0 0 3.9 9.31l22.52 22.52 22.52-22.52a13.07 13.07 0 0 0 3.9-9.31 13.3 13.3 0 0 0-3.9-9.31 13.07 13.07 0 0 0-9.31-3.9 13.3 13.3 0 0 0-9.31 3.9 13.07 13.07 0 0 0-3.9 9.31 13.3 13.3 0 0 0-3.9-9.31 13.07 13.07 0 0 0-9.31-3.9z" transform="translate(-3165.24 -5383.88)"/></g><g class="cls-3"><path class="cls-1" d="M3454.48 5643.78a9.6 9.6 0 0 0-6.72 2.81 9.43 9.43 0 0 0-2.81 6.72 9.6 9.6 0 0 0 2.81 6.72l16.24 16.27 16.26-16.26a9.43 9.43 0 0 0 2.81-6.72 9.6 9.6 0 0 0-2.81-6.72 9.43 9.43 0 0 0-6.72-2.81 9.6 9.6 0 0 0-6.72 2.81 9.43 9.43 0 0 0-2.81 6.72 9.6 9.6 0 0 0-2.81-6.72 9.43 9.43 0 0 0-6.72-2.82z" transform="translate(-3165.24 -5383.88)"/></g><g class="cls-3"><path class="cls-1" d="M3504.84 5454.06a6.81 6.81 0 0 0-4.77 2 6.69 6.69 0 0 0-2 4.77 6.81 6.81 0 0 0 2 4.77l11.54 11.54 11.54-11.54a6.69 6.69 0 0 0 2-4.77 6.81 6.81 0 0 0-2-4.77 6.69 6.69 0 0 0-4.77-2 6.81 6.81 0 0 0-4.77 2 6.69 6.69 0 0 0-2 4.77 6.81 6.81 0 0 0-2-4.77 6.69 6.69 0 0 0-4.77-2z" transform="translate(-3165.24 -5383.88)"/></g><g class="cls-3"><path class="cls-1" d="M3277.18 5570a6.81 6.81 0 0 0-4.77 2 6.69 6.69 0 0 0-2 4.77 6.81 6.81 0 0 0 2 4.77l11.54 11.54 11.54-11.54a6.69 6.69 0 0 0 2-4.77 6.81 6.81 0 0 0-2-4.77 6.69 6.69 0 0 0-4.77-2 6.81 6.81 0 0 0-4.77 2 6.69 6.69 0 0 0-2 4.77 6.81 6.81 0 0 0-2-4.77 6.69 6.69 0 0 0-4.77-2z" transform="translate(-3165.24 -5383.88)"/></g><g class="cls-3"><path class="cls-1" d="M3433.15 5751.12a11.87 11.87 0 0 0-8.31 3.48 11.66 11.66 0 0 0-3.48 8.31 11.87 11.87 0 0 0 3.48 8.31l20.1 20.1 20.1-20.1a11.66 11.66 0 0 0 3.48-8.31 11.87 11.87 0 0 0-3.48-8.31 11.66 11.66 0 0 0-8.31-3.48 11.87 11.87 0 0 0-8.31 3.48 11.66 11.66 0 0 0-3.48 8.31 11.87 11.87 0 0 0-3.48-8.31 11.66 11.66 0 0 0-8.31-3.48z" transform="translate(-3165.24 -5383.88)"/></g><g class="cls-2"><path class="cls-1" d="M3416.21 5383.88a11.93 11.93 0 0 0-8.35 3.49 11.72 11.72 0 0 0-3.49 8.35 11.93 11.93 0 0 0 3.49 8.35l20.2 20.2 20.2-20.2a11.72 11.72 0 0 0 3.49-8.35 11.93 11.93 0 0 0-3.49-8.35 11.72 11.72 0 0 0-8.35-3.49 11.93 11.93 0 0 0-8.35 3.49 11.72 11.72 0 0 0-3.49 8.35 11.93 11.93 0 0 0-3.49-8.35 11.72 11.72 0 0 0-8.37-3.49z" transform="translate(-3165.24 -5383.88)"/></g><path class="cls-4" d="M3301.23 5412.79a5.65 5.65 0 0 0-4.26 3.08c-1.18 2.35-9.87 19.83-11.59 21.55a8.94 8.94 0 0 1-6.52 2.54v36.22h31.69a4.69 4.69 0 0 0 4.26-2.81s9.33-26.35 9.33-28.88a4.48 4.48 0 0 0-4.53-4.53H3306a4.66 4.66 0 0 1-4.53-4.53c0-2.26 3.53-14.31 4.26-16.66a4.56 4.56 0 0 0-2.81-5.7 3.82 3.82 0 0 0-1.69-.28zm-40.47 27.21v36.22h9.05V5440h-9.05z" transform="translate(-3165.24 -5383.88)"/><path class="cls-5" d="M3355.81 5700.79a4 4 0 0 0-3 2.2c-.84 1.69-7.07 14.2-8.3 15.43a6.4 6.4 0 0 1-4.67 1.82v25.93h22.69a3.36 3.36 0 0 0 3-2s6.68-18.86 6.68-20.68a3.21 3.21 0 0 0-3.24-3.24h-9.72a3.34 3.34 0 0 1-3.25-3.25c0-1.62 2.53-10.24 3-11.93a3.26 3.26 0 0 0-2-4.08 2.73 2.73 0 0 0-1.19-.2zm-29 19.45v25.93h6.48v-25.93h-6.48zM3498.18 5695.19a2.37 2.37 0 0 0-1.79 1.29c-.49 1-4.15 8.33-4.87 9.05a3.76 3.76 0 0 1-2.74 1.07v15.22h13.31a2 2 0 0 0 1.79-1.18s3.92-11.07 3.92-12.13a1.88 1.88 0 0 0-1.9-1.9h-5.71a2 2 0 0 1-1.9-1.9 61 61 0 0 1 1.79-7 1.92 1.92 0 0 0-1.18-2.4 1.6 1.6 0 0 0-.72-.12zm-17 11.41v15.22h3.8v-15.22h-3.8zM3213.93 5462.86a2.37 2.37 0 0 0-1.79 1.29c-.49 1-4.15 8.33-4.87 9.05a3.76 3.76 0 0 1-2.74 1.07v15.22h13.31a2 2 0 0 0 1.79-1.18s3.92-11.07 3.92-12.13a1.88 1.88 0 0 0-1.9-1.9h-5.71a2 2 0 0 1-1.9-1.9 61 61 0 0 1 1.79-7 1.92 1.92 0 0 0-1.18-2.4 1.6 1.6 0 0 0-.72-.12zm-17 11.41v15.22h3.8v-15.22h-3.8z" transform="translate(-3165.24 -5383.88)"/><path class="cls-4" d="M3505.49 5529a5 5 0 0 0-3.8 2.75c-1.05 2.1-8.81 17.71-10.35 19.25a8 8 0 0 1-5.82 2.26v32.35h28.3a4.19 4.19 0 0 0 3.8-2.51s8.33-23.53 8.33-25.8a4 4 0 0 0-4-4h-12.13a4.16 4.16 0 0 1-4-4c0-2 3.15-12.78 3.8-14.88a4.07 4.07 0 0 0-2.51-5.09 3.41 3.41 0 0 0-1.62-.33zm-36.15 24.26v32.35h8.09v-32.31h-8.09z" transform="translate(-3165.24 -5383.88)"/><circle class="cls-6" cx="43.74" cy="327.65" r="13.83"/><path class="cls-6" d="M3215.26 5686v9.14a17.61 17.61 0 0 1 11.31 16.42 12.21 12.21 0 0 1-.2 2.09h16.54V5686h-27.65z" transform="translate(-3165.24 -5383.88)"/><path class="cls-6" d="M3209 5693.93a23.92 23.92 0 0 1 2.93.2v-11.51h10.89V5660l-45.25 45.25h15.08a17.51 17.51 0 0 1 16.35-11.32z" transform="translate(-3165.24 -5383.88)"/><rect class="cls-7" x="128.59" y="67.2" width="161.84" height="258.75" rx="15.53" ry="15.53"/><path class="cls-8" d="M144.66 93.04h129.38V287.1H144.66z"/><circle class="cls-1" cx="209.51" cy="307.15" r="9.7"/><rect class="cls-1" x="197.63" y="79.21" width="23.29" height="5.17" rx="2.07" ry="2.07"/><circle class="cls-1" cx="186.87" cy="81.72" r="2.59"/><circle class="cls-6" cx="207.54" cy="213.78" r="19.04"/><path class="cls-6" d="M3381.43 5562.47v12.59a24.25 24.25 0 0 1 15.58 22.61 16.81 16.81 0 0 1-.28 2.88h22.78v-38.08h-38.08z" transform="translate(-3165.24 -5383.88)"/><path class="cls-6" d="M3372.78 5573.43a32.94 32.94 0 0 1 4 .28v-15.85h15v-31.16l-62.27 62.3h20.77a24.11 24.11 0 0 1 22.5-15.57z" transform="translate(-3165.24 -5383.88)"/><path class="cls-7" d="M3253.53 5582.57v17.36c-34.71 0-43.39 17.79-43.39 43.39 4.51-17.18 17.36-26 34.71-26h8.68v17.36l26-27.42z" transform="translate(-3165.24 -5383.88)"/></svg>