<svg id="Layer_1" data-name="Layer 1" xmlns="http://www.w3.org/2000/svg" width="180" height="180" viewBox="0 0 180 180"><defs><style>.cls-1{fill:#ffde00}.cls-2{fill:#211b00}.cls-3{fill:none;stroke:#fff;stroke-linecap:square;stroke-miterlimit:10;stroke-width:2.74px}</style></defs><title>slate</title><rect class="cls-1" width="180" height="180" rx="22" ry="22"/><rect class="cls-2" x="9.15" y="9.15" width="161.69" height="161.69" rx="16" ry="16"/><path class="cls-3" d="M73.85 84.47h32.7M73.89 75.85h44.88M73.8 93.09h32.7M73.76 101.7h32.7M106.42 110.32H62.34"/><path class="cls-1" d="M86.47 40.53l14.11 14.13 8.42 8.5-2.05 2-9.83-9.84c-3.12-3.13-6.78-4-9.41-1.46-2.8 2.69-34.14 32.36-37 35.11-2.55 2.43-2.55 5.31 1 8.81L62.88 109 61 111.68 37.06 87.34zM95 144.26l-14.11-13.91-8.56-8.42 2.08-2 9.92 9.76c3.13 3.09 6.79 3.88 9.42 1.33 2.8-2.72 32.88-32.29 35.68-35 2.47-2.4 2.47-5.24-1-8.69-2.1-2.09-9.88-10.09-9.88-10.09l1.57-2.74 22.49 23.06z"/></svg>